# xmcd
#
# Track frame offsets:
# 150
# 5665
# 18940
# 31362
# 44430
# 57385
# 73025
# 90007
# 100980
# 114725
# 128832
# 142460
# 159910
# 175842
#
# Disc length: 2605 seconds
#
#
# Revision: 0
# Processed by: cddbd v1.5.2PL0 Copyright (c) Steve Scherf et al.
# Submitted via: FreeRIP 2.90 
#
DISCID=bb0a2b0e
DTITLE=Grupo Tradição - Do Jeito Que a Agente Gosta
DYEAR=1900
DGENRE=Country
TTITLE0=Vinhetão Do Sertanejo (Beijo Gostoso)
TTITLE1=Eu Hoje Entrego os Pontos
TTITLE2=Te Amare Eternamente
TTITLE3=Chamamento
TTITLE4=Carinto Mio
TTITLE5=Memórias
TTITLE6=Boate Azul
TTITLE7=Soy Correntino
TTITLE8=Sabor de Muller
TTITLE9=Cavalgadas do Rio Grande
TTITLE10=Mulher Preferida
TTITLE11=Piscina
TTITLE12=Menina Morena
TTITLE13=Som de Cristal
EXTD=
EXTT0=
EXTT1=
EXTT2=
EXTT3=
EXTT4=
EXTT5=
EXTT6=
EXTT7=
EXTT8=
EXTT9=
EXTT10=
EXTT11=
EXTT12=
EXTT13=
PLAYORDER=
